<svg xmlns="http://www.w3.org/2000/svg" width="217.514"
    height="79.935" viewBox="0 0 217.514 79.935">
    <g transform="translate(0 0)">
        <g
            transform="translate(217.514 79.935) rotate(180)">
            <path d="M0,0,41.563,79.346"
                transform="translate(71.29 0.588)" />
            <path d="M0,0,41.564,79.346"
                transform="translate(124.936 0.588)" />
            <path d="M0,0,41.544,79.274"
                transform="translate(145.202 0.589)" />
            <path d="M0,0,41.564,79.346"
                transform="translate(175.95 0.588)" />
            <path d="M0,0,41.872,79.935"
                transform="translate(14.18)" />
            <path d="M0,0,41.872,79.935" />
            <path d="M0,0H56.853"
                transform="translate(3.525 43.242)" />
            <path d="M0,0H56.853"
                transform="translate(3.525 69.079)" />
            <path d="M0,0H56.853"
                transform="translate(3.525 11.618)" />
            <path d="M0,0H56.853"
                transform="translate(3.525 37.459)" />
            <path d="M18.935,0,0,79.346"
                transform="translate(68.828 0.589)" />
            <path d="M18.816,0,0,78.851"
                transform="translate(113.221 0.588)" />
            <path d="M18.935,0,0,79.346"
                transform="translate(164.725 0.588)" />
        </g>
        <path
            d="M37.557,76.077A39.012,39.012,0,0,1,.267,49.329H5.793a31.872,31.872,0,0,0,2.055,4.423H18.482a44.816,44.816,0,0,1-1.161-4.423h5.387a41.581,41.581,0,0,0,1.358,4.423H34.329V49.329h5.2v4.423H50.617a38.8,38.8,0,0,0,1.521-4.423h5.387a43.505,43.505,0,0,1-1.3,4.423H67.265a31.859,31.859,0,0,0,2.055-4.423h5.514A39,39,0,0,1,37.557,76.077ZM45.4,69.959A33.88,33.88,0,0,0,63.643,58.953H54A36.484,36.484,0,0,1,45.4,69.959Zm-17.217-.383a34.537,34.537,0,0,1-7.662-10.623H11.47A33.838,33.838,0,0,0,28.188,69.575ZM39.53,67.9a29.975,29.975,0,0,0,8.394-8.951H39.53Zm-5.2-.035V58.953H26.493A27.534,27.534,0,0,0,34.329,67.869ZM1.823,44.3a2.222,2.222,0,0,1-1.3-.36A1.069,1.069,0,0,1,0,43.048a3.433,3.433,0,0,1,.244-1.091l2.763-7.941c.084-.237.181-.505.29-.789a2.715,2.715,0,0,1,.441-.755,1.815,1.815,0,0,1,.731-.511,3.079,3.079,0,0,1,1.161-.186,2.656,2.656,0,0,1,1.382.313,1.894,1.894,0,0,1,.731.685,12.462,12.462,0,0,1,.511,1.173l2.473,6.966,2.461-7c.2-.519.368-.9.5-1.149a1.841,1.841,0,0,1,.72-.685,2.729,2.729,0,0,1,1.393-.3,2.689,2.689,0,0,1,1.428.313,1.871,1.871,0,0,1,.708.72,11.5,11.5,0,0,1,.476,1.207l2.763,7.941a3.816,3.816,0,0,1,.255,1.091,1.061,1.061,0,0,1-.534.894,2.237,2.237,0,0,1-1.289.36,2.045,2.045,0,0,1-1.173-.279,1.59,1.59,0,0,1-.557-.615,6.491,6.491,0,0,1-.313-.871l-1.95-6.757-2.183,6.327a11.837,11.837,0,0,1-.5,1.161,1.994,1.994,0,0,1-.731.708,2.778,2.778,0,0,1-1.474.325,2.926,2.926,0,0,1-1.474-.313,2.016,2.016,0,0,1-.778-.731,8.423,8.423,0,0,1-.5-1.149L5.8,35.78l-1.962,6.8a3.861,3.861,0,0,1-.592,1.242,1.717,1.717,0,0,1-1.428.476Zm26.737,0a2.222,2.222,0,0,1-1.3-.36,1.069,1.069,0,0,1-.522-.894,3.52,3.52,0,0,1,.255-1.091l2.763-7.941c.084-.237.181-.505.29-.789a2.686,2.686,0,0,1,.43-.755,1.815,1.815,0,0,1,.731-.511,3.079,3.079,0,0,1,1.161-.186,2.7,2.7,0,0,1,1.393.313,1.853,1.853,0,0,1,.72.685,12.463,12.463,0,0,1,.511,1.173l2.473,6.966,2.461-7c.2-.519.368-.9.5-1.149a1.841,1.841,0,0,1,.72-.685,2.729,2.729,0,0,1,1.393-.3,2.689,2.689,0,0,1,1.428.313,1.871,1.871,0,0,1,.708.72,11.5,11.5,0,0,1,.476,1.207l2.763,7.941a3.816,3.816,0,0,1,.255,1.091,1.061,1.061,0,0,1-.534.894,2.237,2.237,0,0,1-1.289.36,2.045,2.045,0,0,1-1.173-.279,1.59,1.59,0,0,1-.557-.615,6.492,6.492,0,0,1-.313-.871l-1.95-6.757-2.183,6.327a11.837,11.837,0,0,1-.5,1.161,1.95,1.95,0,0,1-.72.708,2.778,2.778,0,0,1-1.474.325,2.974,2.974,0,0,1-1.486-.313,2.016,2.016,0,0,1-.778-.731,8.424,8.424,0,0,1-.5-1.149L32.541,35.78l-1.962,6.8A3.858,3.858,0,0,1,30,43.826a1.744,1.744,0,0,1-1.44.476Zm26.737,0a2.222,2.222,0,0,1-1.3-.36,1.069,1.069,0,0,1-.522-.894,3.52,3.52,0,0,1,.255-1.091l2.763-7.941c.084-.237.181-.505.29-.789a2.686,2.686,0,0,1,.43-.755,1.815,1.815,0,0,1,.731-.511,3.079,3.079,0,0,1,1.161-.186,2.7,2.7,0,0,1,1.393.313,1.853,1.853,0,0,1,.72.685,11.9,11.9,0,0,1,.522,1.173L64.2,40.912l2.461-7c.2-.519.368-.9.5-1.149a1.841,1.841,0,0,1,.72-.685,2.729,2.729,0,0,1,1.393-.3,2.689,2.689,0,0,1,1.428.313,1.871,1.871,0,0,1,.708.72,11.5,11.5,0,0,1,.476,1.207l2.763,7.941a3.816,3.816,0,0,1,.255,1.091,1.048,1.048,0,0,1-.522.894,2.275,2.275,0,0,1-1.3.36,2.045,2.045,0,0,1-1.173-.279,1.59,1.59,0,0,1-.557-.615,6.491,6.491,0,0,1-.313-.871L69.1,35.78l-2.194,6.327a11.837,11.837,0,0,1-.5,1.161,1.95,1.95,0,0,1-.72.708,2.778,2.778,0,0,1-1.474.325,2.974,2.974,0,0,1-1.486-.313,2.016,2.016,0,0,1-.778-.731,8.423,8.423,0,0,1-.5-1.149L59.278,35.78l-1.95,6.8a3.861,3.861,0,0,1-.592,1.242,1.744,1.744,0,0,1-1.44.476ZM.07,27.433A38.971,38.971,0,0,1,37.557,0,38.97,38.97,0,0,1,75.044,27.433H69.552a32.036,32.036,0,0,0-1.881-4.33H56.527a44.244,44.244,0,0,1,1.2,4.33H52.417a36.358,36.358,0,0,0-1.358-4.33H39.53v4.33h-5.2V23.1H23.8a44.007,44.007,0,0,0-1.231,4.33h-5.34c.3-1.466.664-2.913,1.08-4.33H7.442a32.094,32.094,0,0,0-1.892,4.33H.07ZM10.855,17.9h9.322A33.026,33.026,0,0,1,27.851,6.583,33.762,33.762,0,0,0,10.855,17.9Zm15.116,0h8.359V8.185A24.778,24.778,0,0,0,25.97,17.9Zm13.56,0H48.47A28.484,28.484,0,0,0,39.53,8.428Zm14.918,0h9.81A33.827,33.827,0,0,0,45.149,6.049a35.014,35.014,0,0,1,9.3,11.853Z"
            transform="translate(145.109 79.935) rotate(180)" />
    </g>
</svg>