<svg xmlns="http://www.w3.org/2000/svg" width="48.67"
    height="75.924" viewBox="0 0 48.67 75.924">
    <path
        d="M5.434,15.3h37.8V51.061H5.434V15.3Zm17.844,5.116h3.509V26.55a4.8,4.8,0,0,1-.314,1.718,3.761,3.761,0,0,1-.983,1.421,4,4,0,0,1-1.406.853,7.784,7.784,0,0,1-2.457.34,17.653,17.653,0,0,1-1.809-.105,5.139,5.139,0,0,1-1.638-.414,3.982,3.982,0,0,1-1.2-.89,3.169,3.169,0,0,1-.751-1.186,5.6,5.6,0,0,1-.328-1.742V20.408h3.509v6.278A1.7,1.7,0,0,0,19.919,28a2.029,2.029,0,0,0,1.427.476,2.031,2.031,0,0,0,1.42-.47,1.689,1.689,0,0,0,.512-1.322V20.414Zm5.973,0h3.529V30.708H29.25V20.414ZM8.505,0h31.66a8.967,8.967,0,0,1,6.014,2.255A7.346,7.346,0,0,1,48.67,7.7V68.225a7.346,7.346,0,0,1-2.492,5.443,8.968,8.968,0,0,1-6.014,2.255H8.505a8.968,8.968,0,0,1-6.014-2.255A7.346,7.346,0,0,1,0,68.225V7.7A7.346,7.346,0,0,1,2.492,2.255,8.967,8.967,0,0,1,8.505,0ZM5.434,57.48H21.42V62.2H26V57.474H43.244V62.2h3.393V11.01H2.041v51.2H5.434V57.48ZM19.755,69.819a.938.938,0,1,1,0-1.866h9.359a.938.938,0,1,1,0,1.866Zm4.58-65.828a1.563,1.563,0,0,1,1.638,1.483,1.646,1.646,0,0,1-3.277,0,1.563,1.563,0,0,1,1.638-1.483Zm22.3,60.057H2.041V68.2a5.485,5.485,0,0,0,1.911,4.121,6.783,6.783,0,0,0,4.553,1.73h31.66a6.68,6.68,0,0,0,4.553-1.73A5.565,5.565,0,0,0,46.629,68.2V64.048ZM2.041,9.138h44.6V7.7a5.485,5.485,0,0,0-1.911-4.121,6.783,6.783,0,0,0-4.553-1.73H8.505a6.68,6.68,0,0,0-4.553,1.73A5.565,5.565,0,0,0,2.041,7.7v1.44Zm17.83,26.29h3.406v5.956a4.527,4.527,0,0,1-.307,1.668,3.591,3.591,0,0,1-.956,1.378,3.863,3.863,0,0,1-1.365.828,7.554,7.554,0,0,1-2.389.334,16.676,16.676,0,0,1-1.761-.105,4.883,4.883,0,0,1-1.59-.408,3.86,3.86,0,0,1-1.167-.859,3.208,3.208,0,0,1-.73-1.149,5.424,5.424,0,0,1-.314-1.687V35.429H16.1v6.1a1.654,1.654,0,0,0,.5,1.273,1.968,1.968,0,0,0,1.386.463,2.016,2.016,0,0,0,1.379-.451,1.654,1.654,0,0,0,.5-1.285v-6.1Zm4.9,0h3.761l1.959,3.077,1.9-3.077h3.72l-3.434,4.844,3.754,5.153H32.588l-2.164-3.213L28.24,45.426h-3.8l3.809-5.209-3.475-4.788Z"
        transform="translate(0)" fill-rule="evenodd" />
</svg>