<svg xmlns="http://www.w3.org/2000/svg"
    xmlns:xlink="http://www.w3.org/1999/xlink"
    viewBox="0 0 216.185 188.559">
    <defs>
        <linearGradient id="a" x1="0.5" x2="0.5" y2="1"
            gradientUnits="objectBoundingBox">
            <stop offset="0" stop-color="#4000ff"
                stop-opacity="0.447" />
            <stop offset="1" stop-color="#92028e"
                stop-opacity="0.6" />
        </linearGradient>
    </defs>
    <path d="M10,10H206.185V178.559H10Z" fill="url(#a)" />
    <path
        d="M0,0V188.559H216.185V0ZM9.008,8.058H207.177V180.5H9.008Z"
        fill="url(#a)" />
    <path
        d="M146.321,87.9a11.086,11.086,0,0,0-4.543-.757c-9.869,0-16.449,7.343-16.449,19.531,0,13.929,6.736,19.531,15.509,19.531a15.242,15.242,0,0,0,5.4-.833V87.9Zm-35.09,19.38c0-17.639,11.749-31.417,31.017-31.417a35.931,35.931,0,0,1,4.073.151V56.333a.773.773,0,0,1,.783-.757h12.611c.627,0,.783.227.783.606v69.193a52.133,52.133,0,0,0,.392,7.419c0,.53,0,.606-.47.833a48.009,48.009,0,0,1-20.052,4.391c-17,0-29.138-10.144-29.138-30.736ZM84.521,95.017l21.931,41.107c.392.606.157,1.211-.47,1.211H92.354a1.542,1.542,0,0,1-1.645-.984c-5.013-9.993-10.1-20.364-15.352-31.114H75.2c-4.7,10.144-9.869,21.2-14.882,31.19a1.512,1.512,0,0,1-1.41.833h-13c-.783,0-.862-.606-.47-1.06L66.9,96.3,46.141,56.636A.67.67,0,0,1,46.69,55.5H60.162c.783,0,1.175.151,1.41.833,4.935,10.069,9.947,19.986,14.647,30.13h.157C80.918,76.47,85.931,66.4,90.709,56.484c.392-.606.627-.984,1.41-.984H104.73c.627,0,.862.454.47,1.136L84.521,95.017Z"
        transform="translate(5.044 -2.479)"
        fill="url(#a)" />
</svg>