<svg xmlns="http://www.w3.org/2000/svg"
    xmlns:xlink="http://www.w3.org/1999/xlink"
    viewBox="0 0 120 120">
    <defs>
        <linearGradient id="a" x1="0.5" x2="0.5" y2="1"
            gradientUnits="objectBoundingBox">
            <stop offset="0" stop-color="#4000ff"
                stop-opacity="0.447" />
            <stop offset="1" stop-color="#92028e"
                stop-opacity="0.6" />
        </linearGradient>
    </defs>
    <path
        d="M120.56,55.96,66.91,2.32a7.913,7.913,0,0,0-11.19,0L44.58,13.46,58.71,27.59a9.394,9.394,0,0,1,11.9,11.98L84.23,53.19a9.393,9.393,0,1,1-5.64,5.3l-12.7-12.7V79.22A9.413,9.413,0,1,1,55.07,81a9.384,9.384,0,0,1,3.08-2.05V45.21a9.413,9.413,0,0,1-5.11-12.34L39.1,18.93,2.32,55.72a7.913,7.913,0,0,0,0,11.19l53.65,53.65a7.913,7.913,0,0,0,11.19,0l53.4-53.39a7.937,7.937,0,0,0,0-11.21Zm0,0Z"
        transform="translate(-0.003 -0.003)"
        fill="url(#a)" />
</svg>