<svg xmlns="http://www.w3.org/2000/svg" width="80" height="80" viewBox="0 0 80 80"><defs><style>.a{fill:rgba(255,255,255,0);stroke:rgba(204,190,190,0.2);stroke-width:2px;}.b{fill:#ece5e5;}.c{stroke:none;}.d{fill:none;}</style></defs><g class="a"><circle class="c" cx="40" cy="40" r="40"/><circle class="d" cx="40" cy="40" r="39"/></g><path class="b" d="M14.248,41.335c0,.171-.2.308-.447.308-.283.026-.481-.111-.481-.308,0-.171.2-.308.447-.308C14.025,41,14.248,41.138,14.248,41.335Zm-2.671-.385c-.06.171.112.368.369.419a.4.4,0,0,0,.532-.171c.052-.171-.112-.368-.369-.445A.441.441,0,0,0,11.577,40.95Zm3.8-.146c-.249.06-.421.223-.4.419.026.171.249.283.507.223s.421-.223.4-.394S15.622,40.779,15.373,40.8ZM21.025,8A20.561,20.561,0,0,0,0,28.888,21.468,21.468,0,0,0,14.557,49.365c1.1.2,1.486-.479,1.486-1.036,0-.531-.026-3.459-.026-5.256,0,0-6.012,1.284-7.274-2.551,0,0-.979-2.491-2.388-3.133,0,0-1.967-1.344.137-1.318a4.536,4.536,0,0,1,3.315,2.209c1.881,3.3,5.033,2.354,6.261,1.789a4.752,4.752,0,0,1,1.374-2.885c-4.8-.531-9.645-1.224-9.645-9.46a6.477,6.477,0,0,1,2.027-5.042,8.064,8.064,0,0,1,.223-5.813c1.795-.556,5.926,2.311,5.926,2.311a20.353,20.353,0,0,1,10.787,0s4.131-2.876,5.926-2.311a8.06,8.06,0,0,1,.223,5.813c1.374,1.515,2.216,2.7,2.216,5.042,0,8.261-5.059,8.92-9.86,9.46a5.054,5.054,0,0,1,1.46,3.972c0,2.885-.026,6.455-.026,7.157,0,.556.4,1.233,1.486,1.036A21.269,21.269,0,0,0,42.6,28.888C42.6,17.014,32.937,8,21.025,8ZM8.348,37.526c-.112.086-.086.283.06.445.137.137.335.2.447.086.112-.086.086-.283-.06-.445C8.657,37.474,8.46,37.415,8.348,37.526Zm-.928-.693c-.06.111.026.248.2.334a.256.256,0,0,0,.369-.06c.06-.111-.026-.248-.2-.334C7.618,36.721,7.481,36.747,7.42,36.832ZM10.2,39.88c-.137.111-.086.368.112.531.2.2.447.223.558.086.112-.111.06-.368-.112-.531C10.572,39.769,10.315,39.743,10.2,39.88Zm-.979-1.258c-.137.086-.137.308,0,.505s.369.283.481.2a.39.39,0,0,0,0-.531C9.585,38.6,9.361,38.51,9.224,38.622Z" transform="translate(18.701 11.3)"/></svg>