<svg xmlns="http://www.w3.org/2000/svg" width="40.5"
    height="36" viewBox="0 0 40.5 36">
    <path
        d="M40.5,1.688v9a1.689,1.689,0,0,1-2.881,1.193L35.109,9.369,17.986,26.492a1.687,1.687,0,0,1-2.386,0L14.008,24.9a1.687,1.687,0,0,1,0-2.386L31.131,5.391l-2.51-2.511A1.689,1.689,0,0,1,29.814,0h9A1.687,1.687,0,0,1,40.5,1.688ZM28.619,19.04l-1.125,1.125A1.687,1.687,0,0,0,27,21.358V31.5H4.5V9H23.063a1.688,1.688,0,0,0,1.193-.494l1.125-1.125A1.688,1.688,0,0,0,24.188,4.5H3.375A3.375,3.375,0,0,0,0,7.875v24.75A3.375,3.375,0,0,0,3.375,36h24.75A3.375,3.375,0,0,0,31.5,32.625V20.233A1.687,1.687,0,0,0,28.619,19.04Z"
        fill="#f4f4f4" />
</svg>