<svg xmlns="http://www.w3.org/2000/svg" xmlns:xlink="http://www.w3.org/1999/xlink" width="150" height="150" viewBox="0 0 150 150"><defs><linearGradient id="a" x1="0.5" x2="0.5" y2="1" gradientUnits="objectBoundingBox"><stop offset="0" stop-color="#4000ff" stop-opacity="0.447"/><stop offset="1" stop-color="#92028e" stop-opacity="0.6"/></linearGradient></defs><path d="M0,2.25v150H150V2.25ZM81.629,119.237c0,14.6-8.571,21.261-21.06,21.261-11.283,0-17.812-5.826-21.161-12.891l11.484-6.931c2.21,3.917,4.219,7.232,9.074,7.232,4.621,0,7.567-1.808,7.567-8.873V71.123h14.1ZM114.978,140.5c-13.092,0-21.562-6.228-25.681-14.4l11.484-6.629c3.013,4.922,6.964,8.571,13.9,8.571,5.826,0,9.576-2.913,9.576-6.964,0-4.821-3.817-6.529-10.279-9.375l-3.516-1.507c-10.179-4.319-16.908-9.777-16.908-21.261,0-10.58,8.069-18.616,20.625-18.616,8.973,0,15.4,3.114,20.022,11.283l-10.982,7.031c-2.411-4.319-5.022-6.027-9.074-6.027-4.118,0-6.73,2.612-6.73,6.027,0,4.219,2.612,5.926,8.672,8.571l3.516,1.507c11.987,5.123,18.717,10.379,18.717,22.165,0,12.656-9.978,19.621-23.337,19.621Z" transform="translate(0 -2.25)" fill="url(#a)"/></svg>