<svg xmlns="http://www.w3.org/2000/svg" xmlns:xlink="http://www.w3.org/1999/xlink" width="250" height="150" viewBox="0 0 250 150"><defs><linearGradient id="a" x1="0.5" x2="0.5" y2="1" gradientUnits="objectBoundingBox"><stop offset="0" stop-color="#4000ff" stop-opacity="0.447"/><stop offset="1" stop-color="#92028e" stop-opacity="0.6"/></linearGradient></defs><path d="M123.555,154.22a5.245,5.245,0,0,1-2.383-.612l-7.5-4.362c-1.133-.612-.586-.842-.2-.957a13.814,13.814,0,0,0,3.4-1.531.685.685,0,0,1,.547.038l5.781,3.367a.761.761,0,0,0,.7,0l22.578-12.781a.722.722,0,0,0,.352-.612V111.246a.647.647,0,0,0-.352-.612L123.906,97.891a.76.76,0,0,0-.7,0l-22.578,12.743a.687.687,0,0,0-.352.612V136.77a.709.709,0,0,0,.352.574l6.172,3.482c3.359,1.645,5.43-.306,5.43-2.219V113.389a.652.652,0,0,1,.664-.651h2.852a.652.652,0,0,1,.664.651v25.218c0,4.4-2.422,6.888-6.68,6.888-1.289,0-2.344,0-5.2-1.378l-5.938-3.329a4.71,4.71,0,0,1-2.383-4.018V111.246a4.583,4.583,0,0,1,2.383-4.018l22.578-12.781a4.935,4.935,0,0,1,4.727,0l22.578,12.781a4.71,4.71,0,0,1,2.383,4.018V136.77a4.583,4.583,0,0,1-2.383,4.018L125.9,153.569a4.391,4.391,0,0,1-2.344.651ZM141.8,129.04c0-4.783-3.281-6.046-10.234-6.965-7.031-.918-7.734-1.378-7.734-2.985,0-1.339.586-3.1,5.781-3.1,4.648,0,6.367.995,7.07,4.056a.624.624,0,0,0,.625.5h2.93a.654.654,0,0,0,.469-.191.6.6,0,0,0,.156-.5c-.469-5.281-4.023-7.73-11.25-7.73-6.445,0-10.273,2.679-10.273,7.118,0,4.86,3.828,6.161,10,6.773,7.383.727,7.969,1.76,7.969,3.176,0,2.487-2.031,3.521-6.8,3.521-5.977,0-7.3-1.454-7.734-4.362a.639.639,0,0,0-.664-.536h-2.93a.652.652,0,0,0-.664.651c0,3.712,2.07,8.151,11.953,8.151,7.227,0,11.328-2.755,11.328-7.577Zm21.289-19.172a4.337,4.337,0,1,1-4.336-4.248A4.259,4.259,0,0,1,163.086,109.869Zm-.7,0a3.653,3.653,0,1,0-3.672,3.6A3.681,3.681,0,0,0,162.383,109.869Zm-1.758,2.373h-1.016c-.039-.23-.2-1.454-.2-1.492-.078-.268-.156-.421-.508-.421h-.859v1.913h-.937v-4.783h1.68c.586,0,1.719,0,1.719,1.263a1.129,1.129,0,0,1-.938,1.186c.664.038.7.459.82,1.071a5.236,5.236,0,0,0,.234,1.263Zm-1.094-3.367c0-.651-.469-.651-.7-.651h-.781v1.339h.742a.652.652,0,0,0,.742-.689Zm-105.9-54.53a2.773,2.773,0,0,0-1.445-2.449L28.242,38.386A3.137,3.137,0,0,0,26.914,38H26.68a2.794,2.794,0,0,0-1.328.383L1.445,51.895A2.818,2.818,0,0,0,0,54.344L.039,90.7a1.456,1.456,0,0,0,.7,1.225,1.4,1.4,0,0,0,1.445,0l14.219-8a2.865,2.865,0,0,0,1.445-2.449V64.484A2.818,2.818,0,0,1,19.3,62.035l6.055-3.406a2.82,2.82,0,0,1,1.445-.383,2.723,2.723,0,0,1,1.445.383L34.3,62.035a2.818,2.818,0,0,1,1.445,2.449v16.99a2.818,2.818,0,0,0,1.445,2.449l14.219,8A1.426,1.426,0,0,0,53.555,90.7ZM184.57,14.661v67.5a2.818,2.818,0,0,1-1.445,2.449L159.18,98.159a2.986,2.986,0,0,1-2.891,0L132.344,84.613a2.818,2.818,0,0,1-1.445-2.449V55.071a2.818,2.818,0,0,1,1.445-2.449l23.945-13.546a2.986,2.986,0,0,1,2.891,0l5.977,3.367a1.024,1.024,0,0,0,1.523-.842V5.63a1.437,1.437,0,0,1,2.148-1.225l14.258,7.806a2.765,2.765,0,0,1,1.484,2.449ZM166.6,63.987a.722.722,0,0,0-.352-.612l-8.2-4.669a.843.843,0,0,0-.742,0l-8.2,4.669a.647.647,0,0,0-.352.612v9.3a.722.722,0,0,0,.352.612l8.2,4.63a.76.76,0,0,0,.7,0l8.2-4.63a.647.647,0,0,0,.352-.612v-9.3Zm81.953-.268A2.818,2.818,0,0,0,250,61.27V54.726a2.818,2.818,0,0,0-1.445-2.449L224.766,38.731a2.986,2.986,0,0,0-2.891,0L197.93,52.277a2.818,2.818,0,0,0-1.445,2.449V81.819a2.773,2.773,0,0,0,1.445,2.449l23.789,13.279a2.911,2.911,0,0,0,2.852,0L238.945,89.7a1.39,1.39,0,0,0,0-2.449l-24.1-13.546a1.411,1.411,0,0,1-.742-1.225v-8.5a1.411,1.411,0,0,1,.742-1.225l7.5-4.248a1.4,1.4,0,0,1,1.445,0l7.5,4.248a1.5,1.5,0,0,1,.742,1.225v6.658a1.467,1.467,0,0,0,2.188,1.225l14.336-8.151Zm-30.2,1.339a.581.581,0,0,0-.273.459v5.2a.529.529,0,0,0,.273.459l4.609,2.6a.477.477,0,0,0,.547,0l4.609-2.6a.581.581,0,0,0,.273-.459v-5.2a.529.529,0,0,0-.273-.459l-4.609-2.6a.477.477,0,0,0-.547,0ZM119.063,81.7V54.765a2.9,2.9,0,0,0-1.523-2.449L93.672,38.846a2.984,2.984,0,0,0-2.891,0L66.914,52.315a2.847,2.847,0,0,0-1.523,2.449V81.7a2.946,2.946,0,0,0,1.563,2.449l23.906,13.47a2.889,2.889,0,0,0,2.891,0l23.828-13.47a2.852,2.852,0,0,0,1.406-1.8,3.306,3.306,0,0,0,.078-.651Zm-29.023-47.8-.312.191h.43ZM119.8,83.732l-.156-.268v.344Z" transform="translate(0 -4.22)" fill="url(#a)"/></svg>