<svg xmlns="http://www.w3.org/2000/svg" xmlns:xlink="http://www.w3.org/1999/xlink" width="150" height="120" viewBox="0 0 150 120"><defs><linearGradient id="a" x1="0.5" x2="0.5" y2="1" gradientUnits="objectBoundingBox"><stop offset="0" stop-color="#4000ff" stop-opacity="0.447"/><stop offset="1" stop-color="#92028e" stop-opacity="0.6"/></linearGradient></defs><path d="M70.744,91.847C70.674,92,70.6,92.117,70.744,91.847ZM129.135,70.1a29.175,29.175,0,0,0-13.594,3.375c-1.383-2.975-2.813-5.575-3.047-7.524a21.4,21.4,0,0,1-.258-6.324,56.024,56.024,0,0,1,1.781-6.8c-.023-.275-.328-1.65-3.352-1.675s-5.625.625-5.927,1.475A32.32,32.32,0,0,0,103.5,57.4c-.539,2.925-6.045,13.374-9.162,18.823a20.18,20.18,0,0,1-2.086-5.5A21.4,21.4,0,0,1,91.99,64.4a56.026,56.026,0,0,1,1.781-6.8c-.023-.275-.328-1.65-3.349-1.675s-5.625.625-5.93,1.475-.633,2.85-1.242,4.775S75.307,81.5,73.388,86.022c-.984,2.3-1.828,4.15-2.438,5.4-.094.2-.164.325-.211.425.07-.125.117-.25.117-.2-.516,1.075-.82,1.675-.82,1.675v.025c-.4.8-.844,1.525-1.055,1.525-.141,0-.445-2.1.07-4.975,1.1-6.05,3.7-15.449,3.68-15.774-.023-.175.492-1.8-1.711-2.675a2.646,2.646,0,0,0-3.094.55c-.188,0-.328.5-.328.5s2.367-10.6-4.545-10.6c-4.313,0-10.313,5.05-13.261,9.624-1.852,1.075-5.859,3.4-10.078,5.875-1.617.95-3.281,1.925-4.852,2.85-.117-.125-.211-.25-.328-.375-8.388-9.549-23.876-16.3-23.22-29.123C11.55,46.076,13.073,33.8,41.1,18.9,64.067,6.7,82.43,10.054,85.592,17.5c4.547,10.624-9.818,30.4-33.671,33.247-9.092,1.075-13.87-2.675-15.066-4.075-1.242-1.475-1.43-1.55-1.9-1.275-.773.45-.281,1.75,0,2.525.7,1.975,3.633,5.475,8.623,7.224,4.383,1.525,15.042,2.375,27.931-2.95,14.48-5.95,25.751-22.523,22.446-36.4C90.591,1.7,68.672-2.92,47.946,4.929,35.6,9.6,22.242,16.953,12.635,26.527,1.223,37.926-.6,47.85.147,52c2.67,14.724,21.7,24.323,29.311,31.422-.375.225-.727.425-1.055.625C24.586,86.072,10.08,94.172,6.449,102.721c-4.1,9.7.68,16.649,3.818,17.6,9.795,2.9,19.824-2.325,25.212-10.9s4.734-19.773,2.25-24.873c-.023-.075-.07-.125-.094-.2.984-.625,1.992-1.25,3-1.875,1.943-1.225,3.841-2.35,5.506-3.325A41.092,41.092,0,0,0,44.173,89.8c-.422,5.5,1.711,12.624,4.477,15.424a4.714,4.714,0,0,0,3.607,1.25c3.234,0,4.688-2.85,6.3-6.249,1.992-4.15,3.75-8.974,3.75-8.974s-2.2,13.049,3.82,13.049c2.2,0,4.4-3.025,5.391-4.575v.025s.047-.1.164-.3c.234-.375.352-.6.352-.6v-.075c.891-1.625,2.836-5.35,5.763-11.5C81.6,79.323,85.226,69.4,85.226,69.4a53.118,53.118,0,0,0,1.453,6.449,62.467,62.467,0,0,0,3.141,7.5c-.891,1.3-1.43,2.05-1.43,2.05a.079.079,0,0,0,.023.05c-.7,1-1.5,2.075-2.32,3.125-3,3.8-6.563,8.149-7.031,9.4-.563,1.475-.422,2.575.656,3.425a5.392,5.392,0,0,0,3.677.625,15.429,15.429,0,0,0,5.508-1.35,18.881,18.881,0,0,0,4.732-2.65,11.553,11.553,0,0,0,4.547-9.949,21.813,21.813,0,0,0-1.711-7.049c.258-.4.539-.825.8-1.25a135.5,135.5,0,0,0,8.224-15.154,53.117,53.117,0,0,0,1.453,6.449,45.636,45.636,0,0,0,2.67,6.424c-4.357,3.775-7.052,8.149-7.99,11.024-1.734,5.325-.375,7.724,2.18,8.274a7.448,7.448,0,0,0,4.008-.875,18.227,18.227,0,0,0,5.06-2.775c2.93-2.3,5.763-5.525,5.576-9.9a19.641,19.641,0,0,0-1.266-5.85,26.968,26.968,0,0,1,14.553-1.8c13.05,1.625,15.6,10.324,15.113,13.949a9.2,9.2,0,0,1-4.148,6.249c-.914.6-1.2.825-1.125,1.275.117.65.539.625,1.313.475a10.669,10.669,0,0,0,7.1-9.674c.375-8.5-7.287-17.849-20.86-17.774ZM28.544,106.271c-4.31,5.025-10.357,6.924-12.956,5.325-2.789-1.73-1.688-9.124,3.631-14.479a69.956,69.956,0,0,1,10.17-8.1c.633-.4,1.547-1,2.672-1.725.188-.125.281-.175.281-.175.211-.15.445-.275.68-.425a20.9,20.9,0,0,1-4.477,19.573ZM60.035,83.423c-1.5,3.925-4.662,13.924-6.584,13.4-1.641-.45-2.648-8.074-.328-15.574a35.2,35.2,0,0,1,5.133-10.024c2.365-2.825,4.966-3.725,5.576-2.6C64.653,70.1,60.973,80.973,60.035,83.423ZM86.051,96.671c-.633.35-1.219.575-1.5.4-.211-.125.258-.6.258-.6s3.258-3.725,4.547-5.425c.75-1,1.617-2.175,2.552-3.475,0,.125.023.25.023.4-.03,4.475-4.059,7.5-5.888,8.7ZM106.109,91.8c-.469-.35-.4-1.525,1.172-5.175a19.362,19.362,0,0,1,4.453-6.125,9.587,9.587,0,0,1,.445,2.7,8.709,8.709,0,0,1-6.068,8.6Z" transform="translate(0 -1.125)" fill="url(#a)"/></svg>