<svg xmlns="http://www.w3.org/2000/svg" width="80" height="80" viewBox="0 0 80 80"><defs><style>.a{fill:rgba(255,255,255,0);stroke:rgba(204,190,190,0.2);stroke-width:2px;}.b{fill:#ece5e5;}.c{stroke:none;}.d{fill:none;}</style></defs><g class="a"><circle class="c" cx="40" cy="40" r="40"/><circle class="d" cx="40" cy="40" r="39"/></g><path class="b" d="M8.539,42.226H.63V14.041H8.539ZM4.58,10.2A4.889,4.889,0,0,1,0,5.079,4.843,4.843,0,0,1,4.58.01a4.843,4.843,0,0,1,4.58,5.069A4.889,4.889,0,0,1,4.58,10.2Zm33.56,32.03H30.248V28.505c0-3.27-.06-7.463-4.112-7.463-4.112,0-4.742,3.553-4.742,7.228V42.226h-7.9V14.041h7.585v3.845h.111a8.2,8.2,0,0,1,7.483-4.552c8,0,9.476,5.833,9.476,13.41V42.226Z" transform="translate(20.926 13.882)"/></svg>