<svg xmlns="http://www.w3.org/2000/svg" xmlns:xlink="http://www.w3.org/1999/xlink" width="178.88" height="96.859" viewBox="0 0 178.88 96.859"><defs><linearGradient id="a" x1="0.5" x2="0.5" y2="1" gradientUnits="objectBoundingBox"><stop offset="0" stop-color="#92028e" stop-opacity="0.6"/><stop offset="1" stop-color="#4000ff" stop-opacity="0.447"/></linearGradient></defs><path d="M89.44,0Q53.673,0,44.72,32.286q13.422-16.137,31.3-12.106c6.813,1.533,11.646,5.987,17.061,10.916C101.814,39.132,112,48.423,134.16,48.423q35.767,0,44.72-32.286-13.407,16.15-31.3,12.106c-6.813-1.533-11.646-5.987-17.061-10.916C121.757,9.251,111.611,0,89.44,0ZM44.72,48.423Q8.953,48.423,0,80.709,13.436,64.573,31.3,68.6c6.813,1.533,11.646,5.987,17.061,10.929,8.734,8.022,18.924,17.326,41.081,17.326q35.767,0,44.72-32.286-13.407,16.137-31.3,12.079C96.049,75.119,91.216,70.665,85.8,65.736,77.066,57.7,66.876,48.4,44.72,48.4Z" fill-rule="evenodd" fill="url(#a)"/></svg>